Coordinates
version=1
nRows=13
nColumns=27
inDegrees=yes

Units are S.I. units (second, meters, Newtons, ...)
If the header above contains a line with 'inDegrees', this indicates whether rotational values are in degrees (yes) or radians (no).

endheader
time	pelvis_rotation	pelvis_tilt	pelvis_list	pelvis_tx	pelvis_ty	pelvis_tz	hip_flexion_r	hip_adduction_r	hip_rotation_r	knee_angle_r	knee_rotation_r	knee_adduction_r	knee_angle_r_beta	ankle_angle_r	subtalar_angle_r	mtp_angle_r	hip_flexion_l	hip_adduction_l	hip_rotation_l	knee_angle_l	knee_rotation_l	knee_adduction_l	knee_angle_l_beta	ankle_angle_l	subtalar_angle_l	mtp_angle_l
      4.19000000	      6.83701971	    -23.62779540	      4.70720227	     -0.00597826	      0.64816309	     -1.14704133	     83.53271923	    -49.41426204	     -5.35394089	     79.48950465	      0.00000000	   -694.90298230	      1.38735358	     14.82790313	      0.00000000	      0.00000000	     82.07534150	    -29.77321914	     -0.91192243	     72.27059291	      0.00000000	     -9.91389143	      1.26135980	      8.07407384	      0.00000000	      0.00000000
      4.19500000	      6.80161801	    -23.66458053	      4.72403699	     -0.00630665	      0.64656211	     -1.14703379	     83.97041236	    -49.42644075	     -5.01478427	     79.77629645	      0.00000000	   -694.83631258	      1.39235904	     14.88554029	      0.00000000	      0.00000000	     82.36553574	    -29.89319525	     -0.85369625	     72.55788742	      0.00000000	     -9.91477514	      1.26637403	      8.08413684	      0.00000000	      0.00000000
      4.20000000	      6.76142882	    -23.74089343	      4.76880304	     -0.00662008	      0.64493470	     -1.14701683	     84.49534463	    -49.43024789	     -4.61410692	     80.08436644	      0.00000000	   -694.74489991	      1.39773587	     15.01118033	      0.00000000	      0.00000000	     82.68231027	    -30.03626310	     -0.84667318	     72.85789202	      0.00000000	     -9.91585264	      1.27161010	      8.10808126	      0.00000000	      0.00000000
      4.20500000	      6.72903424	    -23.78627021	      4.81563051	     -0.00694256	      0.64334786	     -1.14699780	     84.98494225	    -49.43871211	     -4.21837758	     80.38118643	      0.00000000	   -694.67695608	      1.40291636	     15.08379774	      0.00000000	      0.00000000	     82.95828745	    -30.15568971	     -0.83025933	     73.14038934	      0.00000000	     -9.91670628	      1.27654061	      8.13236648	      0.00000000	      0.00000000
      4.21000000	      6.70279457	    -23.88103735	      4.87317034	     -0.00728229	      0.64175574	     -1.14697639	     85.54283151	    -49.44138641	     -3.79854168	     80.68077659	      0.00000000	   -694.61209686	      1.40814519	     15.15109899	      0.00000000	      0.00000000	     83.28343360	    -30.27270354	     -0.81895329	     73.42211294	      0.00000000	     -9.91754054	      1.28145761	      8.14708326	      0.00000000	      0.00000000
      4.21500000	      6.67551272	    -23.90013463	      4.88242181	     -0.00755203	      0.64017345	     -1.14693698	     85.93491104	    -49.45417665	     -3.48525922	     80.96759769	      0.00000000	   -694.54778953	      1.41315117	     15.24292421	      0.00000000	      0.00000000	     83.56410846	    -30.39812181	     -0.75556848	     73.71416815	      0.00000000	     -9.91832072	      1.28655494	      8.17171617	      0.00000000	      0.00000000
      4.22000000	      6.64863535	    -23.95097964	      4.92491813	     -0.00780648	      0.63866889	     -1.14688521	     86.39714752	    -49.46157073	     -3.12417801	     81.25356877	      0.00000000	   -694.47493865	      1.41814230	     15.34201507	      0.00000000	      0.00000000	     83.83290957	    -30.52250895	     -0.74645944	     73.97632436	      0.00000000	     -9.91910660	      1.29113043	      8.19272057	      0.00000000	      0.00000000
      4.22500000	      6.63569130	    -24.03866707	      4.98393667	     -0.00814353	      0.63711651	     -1.14685088	     86.93432890	    -49.46352987	     -2.70950403	     81.54574014	      0.00000000	   -694.42416477	      1.42324166	     15.39832000	      0.00000000	      0.00000000	     84.14944620	    -30.62067105	     -0.72200033	     74.25114275	      0.00000000	     -9.92000537	      1.29592691	      8.20576258	      0.00000000	      0.00000000
      4.23000000	      6.22940131	    -24.13499554	      4.99900904	     -0.00874894	      0.63562207	     -1.14667472	     87.61750575	    -48.94423323	     -1.98075112	     81.81140684	      0.00000000	   -694.51455986	      1.42787842	     15.51361966	      0.00000000	      0.00000000	     84.33209577	    -31.08965320	     -0.86845002	     74.49271753	      0.00000000	     -9.82964632	      1.30014319	      8.17867263	      0.00000000	      0.00000000
      4.23500000	      6.60706801	    -24.19956085	      5.09416283	     -0.00872111	      0.63400297	     -1.14675026	     87.97664855	    -49.47671625	     -1.91837193	     82.13940656	      0.00000000	   -694.29989384	      1.43360309	     15.57249530	      0.00000000	      0.00000000	     84.76689172	    -30.83440418	     -0.67396317	     74.79516788	      0.00000000	     -9.92131915	      1.30542194	      8.22627048	      0.00000000	      0.00000000
      4.24000000	      6.22663779	    -24.32664189	      5.11809238	     -0.00938970	      0.63248350	     -1.14658515	     88.69910347	    -48.96253982	     -1.17993515	     82.39849788	      0.00000000	   -694.38972996	      1.43812509	     15.62760398	      0.00000000	      0.00000000	     84.99237103	    -31.27512774	     -0.80272067	     75.03830667	      0.00000000	     -9.83272817	      1.30966552	      8.22013007	      0.00000000	      0.00000000
      4.24500000	      6.58285607	    -24.36613606	      5.20145862	     -0.00924663	      0.63086366	     -1.14663081	     89.01669456	    -49.48683775	     -1.13716462	     82.73036441	      0.00000000	   -694.18201750	      1.44391725	     15.73578486	      0.00000000	      0.00000000	     85.40004196	    -31.05525652	     -0.62210640	     75.34549009	      0.00000000	     -9.92273408	      1.31502688	      8.26656833	      0.00000000	      0.00000000
      4.25000000	      6.19441381	    -24.42297599	      5.25361175	     -0.00984180	      0.62938895	     -1.14648658	     89.67920242	    -48.97679907	     -0.38068806	     82.98195346	      0.00000000	   -694.26017329	      1.44830831	     15.79621266	      0.00000000	      0.00000000	     85.50086724	    -31.48960418	     -0.79494979	     75.56248945	      0.00000000	     -9.83553130	      1.31881423	      8.26861628	      0.00000000	      0.00000000
